<svg id="Capa_1" enable-background="new 0 0 512 512" height="512" viewBox="0 0 512 512" width="512" xmlns="http://www.w3.org/2000/svg"><g><path d="m492.5 37.171h-400.47c-4.143 0-7.5 3.358-7.5 7.5s3.357 7.5 7.5 7.5h400.47c2.481 0 4.5 2.019 4.5 4.5v235.81h-124.63c-4.143 0-7.5 3.358-7.5 7.5s3.357 7.5 7.5 7.5h124.63v32.59c0 2.481-2.019 4.5-4.5 4.5h-473c-2.481 0-4.5-2.019-4.5-4.5v-32.59h322.37c4.143 0 7.5-3.358 7.5-7.5s-3.357-7.5-7.5-7.5h-322.37v-235.81c0-2.481 2.019-4.5 4.5-4.5h37.53c4.143 0 7.5-3.358 7.5-7.5s-3.357-7.5-7.5-7.5h-37.53c-10.752 0-19.5 8.748-19.5 19.5v283.4c0 10.752 8.748 19.5 19.5 19.5h189v61.083h-28.77c-9.713 0-18.294 5.838-21.86 14.874l-7.147 18.111c-1.885 4.776-1.286 10.163 1.603 14.409s7.68 6.781 12.815 6.781h181.719c5.136 0 9.927-2.535 12.815-6.781s3.487-9.633 1.603-14.409l-7.147-18.113c-3.566-9.035-12.147-14.873-21.859-14.873h-28.772v-61.083h189c10.752 0 19.5-8.748 19.5-19.5v-283.4c0-10.752-8.748-19.499-19.5-19.499zm-152.323 403.862 7.147 18.112c.034.086.098.246-.052.465-.148.219-.32.219-.413.219h-181.718c-.093 0-.265 0-.413-.219-.149-.219-.086-.379-.052-.465l7.147-18.111c1.29-3.269 4.394-5.381 7.907-5.381h152.54c3.513 0 6.617 2.112 7.907 5.38zm-51.677-20.38h-65v-61.083h65z"/><path d="m461.5 272.485c8.547 0 15.5-6.953 15.5-15.5v-169.315c0-8.547-6.953-15.5-15.5-15.5h-153.096c-8.547 0-15.5 6.953-15.5 15.5v169.315c0 8.547 6.953 15.5 15.5 15.5zm-153.096-185.315h153.096c.275 0 .5.224.5.5v32.223h-154.096v-32.223c0-.275.225-.5.5-.5zm-.5 169.815v-122.091h154.096v122.092c0 .276-.225.5-.5.5h-153.096c-.275-.001-.5-.225-.5-.501z"/><path d="m332.309 226.622h62.724v5c0 4.142 3.357 7.5 7.5 7.5s7.5-3.358 7.5-7.5v-5h27.563c4.143 0 7.5-3.358 7.5-7.5s-3.357-7.5-7.5-7.5h-27.563v-5c0-4.142-3.357-7.5-7.5-7.5s-7.5 3.358-7.5 7.5v5h-62.724c-4.143 0-7.5 3.358-7.5 7.5s3.357 7.5 7.5 7.5z"/><path d="m332.309 180.757h13.702v4.226c0 4.142 3.357 7.5 7.5 7.5s7.5-3.358 7.5-7.5v-4.226h76.585c4.143 0 7.5-3.358 7.5-7.5s-3.357-7.5-7.5-7.5h-76.585v-5.774c0-4.142-3.357-7.5-7.5-7.5s-7.5 3.358-7.5 7.5v5.774h-13.702c-4.143 0-7.5 3.358-7.5 7.5s3.357 7.5 7.5 7.5z"/><path d="m145.097 153.982c14.612 0 26.5-11.888 26.5-26.5s-11.888-26.5-26.5-26.5-26.5 11.888-26.5 26.5 11.887 26.5 26.5 26.5zm0-38c6.341 0 11.5 5.159 11.5 11.5s-5.159 11.5-11.5 11.5-11.5-5.159-11.5-11.5 5.159-11.5 11.5-11.5z"/><path d="m35 87.67v169.315c0 8.547 6.953 15.5 15.5 15.5h206.904c8.547 0 15.5-6.953 15.5-15.5v-169.315c0-8.547-6.953-15.5-15.5-15.5h-206.904c-8.547 0-15.5 6.954-15.5 15.5zm15 169.315v-13.015l43.905-76.049c1.173-2.032 3.118-2.251 3.899-2.251.782 0 2.728.219 3.9 2.25l51.708 89.564h-102.912c-.275.001-.5-.223-.5-.499zm207.404.5h-86.671l-9.772-16.926 52.447-90.834c1.167-2.024 3.106-2.244 3.886-2.244h.002c.783 0 2.727.22 3.899 2.25l36.709 63.586v43.668c0 .276-.224.5-.5.5zm.5-169.815v95.645l-23.719-41.085c-3.526-6.105-9.839-9.749-16.889-9.749-.004 0-.007 0-.011 0-7.049.003-13.356 3.65-16.871 9.75l-48.114 83.328-37.606-65.139c-3.526-6.104-9.84-9.749-16.891-9.749-7.05 0-13.363 3.645-16.89 9.75l-30.913 53.549v-126.3c0-.276.225-.5.5-.5h206.904c.276 0 .5.225.5.5z"/></g></svg>