<svg id="Capa_1" enable-background="new 0 0 512 512" height="512" viewBox="0 0 512 512" width="512" xmlns="http://www.w3.org/2000/svg"><g><path d="m151.893 149.786c24.754 0 44.893-20.139 44.893-44.893s-20.139-44.893-44.893-44.893-44.893 20.139-44.893 44.893 20.139 44.893 44.893 44.893zm0-59.786c8.212 0 14.893 6.681 14.893 14.893s-6.681 14.893-14.893 14.893-14.893-6.681-14.893-14.893 6.681-14.893 14.893-14.893z"/><path d="m497 228.982h-80.75v-213.982c0-8.284-6.716-15-15-15h-386.25c-8.284 0-15 6.716-15 15v386.25c0 8.284 6.716 15 15 15h213.982v80.75c0 8.284 6.716 15 15 15h253.018c8.284 0 15-6.716 15-15v-253.018c0-8.284-6.716-15-15-15zm-110.75-198.982v124.686l-85.999-61.964c-5.945-4.285-14.115-3.644-19.322 1.511l-103.599 102.571-59.798-16.479c-4.858-1.338-10.063-.148-13.857 3.167l-73.675 64.402v-217.894zm-356.25 356.25v-98.51l87.342-76.349 60.388 16.642c5.174 1.426 10.721-.023 14.539-3.802l100.746-99.746 93.235 67.178v37.32h-142.268c-8.284 0-15 6.716-15 15v142.267zm452 95.75h-223.018v-223.018h223.018z"/><path d="m303.982 427.661h78.616v9.339c0 8.284 6.716 15 15 15s15-6.716 15-15v-9.339h24.402c8.284 0 15-6.716 15-15s-6.716-15-15-15h-24.401v-9.339c0-8.284-6.716-15-15-15s-15 6.716-15 15v9.339h-78.616c-8.284 0-15 6.716-15 15-.001 8.284 6.715 15 14.999 15z"/><path d="m303.982 343.321h24.401v9.339c0 8.284 6.716 15 15 15s15-6.716 15-15v-9.339h78.617c8.284 0 15-6.716 15-15s-6.716-15-15-15h-78.616v-9.339c0-8.284-6.716-15-15-15s-15 6.716-15 15v9.339h-24.401c-8.284 0-15 6.716-15 15-.001 8.284 6.715 15 14.999 15z"/></g></svg>